<svg id="Layer_1" data-name="Layer 1" xmlns="http://www.w3.org/2000/svg" xmlns:xlink="http://www.w3.org/1999/xlink" viewBox="0 0 512 512"><defs><style>.cls-1{fill:#0cead9;}.cls-2{fill:#d9d9d9;}.cls-3{fill:#cd412a;}.cls-4{fill:url(#linear-gradient);}</style><linearGradient id="linear-gradient" x1="256.01" y1="1028.16" x2="256.01" y2="-56.58" gradientUnits="userSpaceOnUse"><stop offset="0" stop-color="#cd412a"/><stop offset="1" stop-color="#ff9c92"/></linearGradient></defs><path id="Colored_Dot" class="cls-1" d="M304.25,296.12a63.82,63.82,0,0,0,4.88-6.45c.86-1.35,1.53-2.81,2.29-4.22a61.4,61.4,0,0,0,3-5.9,62.46,62.46,0,0,0,2.06-6.65c.44-1.56,1-3,1.35-4.66a61,61,0,0,0,0-24.48c-.31-1.61-.91-3.1-1.35-4.66a61.58,61.58,0,0,0-2.06-6.64,60.42,60.42,0,0,0-3-5.91c-.76-1.41-1.43-2.87-2.29-4.22a63.24,63.24,0,0,0-4.87-6.44c-.66-.78-1.25-1.61-1.95-2.36a63.15,63.15,0,0,0-6.91-6.37c-.41-.33-.79-.68-1.21-1a62.43,62.43,0,0,0-8.84-5.63l-.44-.24a62.05,62.05,0,0,0-21.82-6.61h0A61.46,61.46,0,0,0,256,193,63,63,0,1,0,256,319a61.46,61.46,0,0,0,7.09-.72h0a62.05,62.05,0,0,0,21.82-6.61l.44-.24a62.43,62.43,0,0,0,8.84-5.63c.42-.32.8-.67,1.21-1a63.34,63.34,0,0,0,6.92-6.38C303,297.72,303.59,296.9,304.25,296.12Z"/><path id="Dot_Edge" class="cls-2" d="M207.14,256a62.81,62.81,0,0,1,55.95-62.32A61.46,61.46,0,0,0,256,193,63,63,0,1,0,256,319a61.46,61.46,0,0,0,7.09-.72A62.81,62.81,0,0,1,207.14,256Z"/><path class="cls-3" d="M342,504.79c-7.48-5.09-18.19-10-32.73-15.09-52.54-18.28-98.63-43.65-137-75.4-21.25-17.6-47.77-41.81-64.35-73.12-16.48-31.09-23-66.64-18.38-100.1,12-86.36,83.46-149,170-149a177.55,177.55,0,0,1,67.07,13.3c53.9,21.93,77.52,61.37,87.84,90.59,15.19,43,11.89,92.75-8.62,129.79a137.51,137.51,0,0,1-24.76,32.74,94.94,94.94,0,0,1-65.29,26.42,91.29,91.29,0,0,1-13.94-1.07c-23.07-3.64-39.48-12.48-51.68-27.82a137.26,137.26,0,0,1-17.06-27.7l-6.59-14.21,11.87,10.23c12.34,10.64,29.56,16.75,47.21,16.75a80.69,80.69,0,0,0,27.2-4.71c41.19-14.72,65.76-65,53.67-109.86-12.78-47.41-51.16-79.46-102.63-85.73a139.77,139.77,0,0,0-16.94-1c-34.85,0-66.3,13-88.56,36.51-44.74,47.27-50.75,123.63-14,177.61,41.37,60.73,112.57,94.52,165,112.17,8.84,3.63,17.8,8,25,15.84A78,78,0,0,1,347,500.52L352.57,512Z"/><path class="cls-4" d="M411.27,197c-10.09-28.56-33.18-67.11-85.92-88.57a174,174,0,0,0-65.8-13c-84.85,0-154.93,61.45-166.65,146.12-4.54,32.76,1.86,67.57,18,98,16.32,30.81,42.52,54.71,63.53,72.1,38.08,31.51,83.83,56.67,136,74.81,14.81,5.15,25.75,10.21,33.51,15.5a75.16,75.16,0,0,0-12.05-17.88c-6.6-7.23-14.88-11.34-23.56-14.91-53.51-18-125-52.12-166.74-113.46-37.63-55.27-31.48-133.45,14.32-181.85,22.92-24.23,55.24-37.57,91-37.57a142.37,142.37,0,0,1,17.35,1.06c52.91,6.44,92.34,39.42,105.5,88.21,12.52,46.47-13,98.64-55.8,113.93a84.27,84.27,0,0,1-28.34,4.9c-18.74,0-36.49-6.42-49.43-17.57a135.12,135.12,0,0,0,16.64,27c11.64,14.63,27.28,23.06,49.55,26.57a87.27,87.27,0,0,0,13.43,1,91.61,91.61,0,0,0,63-25.47,134.91,134.91,0,0,0,24.13-31.95C422.94,287.86,426.15,239.19,411.27,197Z"/></svg>